<svg xmlns="http://www.w3.org/2000/svg" width="292" height="280"><style>.st4{fill:#1253dd}</style><path d="M254 0h38v125c-7.6 7.7-8.3 16.5-4.3 26.2 1.7 4.2 2.4 8.7 4.3 12.8v93c-2.1 2.5-3.7.9-5.4-.5-5.3-4.3-8.9-9.9-12.7-15.3-8.1-11.3-15-23.4-22.2-35.3-8.9-14.8-17.3-29.9-26.6-44.5-7.1-11.2-14.9-21.6-24.2-30.9-6.7-6.6-14.2-11.7-23-15.3-20.2-8.2-41.4-13.4-61.5-21.6-13.2-5.4-25.1-12.5-35.7-22-2.3-2-4.9-3.4-7.3-5.2-4.6-3.6-8.8-7.4-11.7-12.8-2.7-5.1-7.3-9-11-13.4-5-6-8-13-12.1-19.4-3.3-5.1-7.3-9.9-9.1-15.9-.8-1.9-1.4-3.5.5-4.9h41c3.4 2 4.9 5.6 7.2 8.5 13 16.4 27.5 31.2 47.2 39.6 5.4 2.3 11.1 3.7 16.8 4.4 12.7 1.7 25.5 1.7 38.2-.1 12.5-1.8 23.9-6.6 34.8-12.7 9-5 16.6-11.5 22.8-19.8 3.3-4.4 7-8.5 9.4-13.4 1.5-2.9 3.9-4.8 6.6-6.5z" fill="#0d4bcd"/><path d="M30 0c3.7 9 10 16.5 14.1 25.1C49.6 37 60 45 66.2 56.2c1.1 2 2.9 3.8 4.8 5 10.3 6.6 19.1 15.1 29.8 21.5 14.4 8.6 30 13 45.5 18.3 12.2 4.2 24.5 8.2 36.4 13.2 8.3 3.5 15.2 9.2 21.4 16 7.2 7.8 14.6 15.5 20.1 24.6 8.2 13.5 16.4 26.9 24.3 40.6 9.7 16.6 18.8 33.5 30.8 48.6 3.8 4.8 6.9 10.1 12.6 13v23h-47c-3.2-2-4.1-5-4.9-8.6-1.9-8.3-5.7-15.9-8-24.1-2.3-8.2-6.4-15.7-9.8-23.3-4.6-10.4-10.2-20.5-17.2-29.7-5.6-7.5-12-14.2-18.6-20.8-11.4-11.4-24.9-19.6-39.2-27-11.3-5.8-23.4-9.6-34.4-15.9-5.5-3.2-11.7-4.6-17.5-7.3-16-7.6-30.1-18.2-45.1-27.4-1.9-1.1-3.3-2.7-4.9-4.3-6.4-6.6-12.9-13.3-19.6-19.8-5.6-5.5-9.3-12.4-13.9-18.7C6.7 46 3.1 38.2 0 30V0h30z" fill="#0543be"/><path d="M0 30c1.7.5 2.6 1.9 3.5 3.4 3.4 5.5 6 11.4 9.7 16.8 5.2 7.5 9.7 15.4 16.3 21.8 3 2.9 6 5.8 8.8 8.9C49 92.8 63 100.2 76 109.1c15.2 10.5 32.5 16.6 49 24.3 12.5 5.8 24.8 12.1 37.3 17.8 2.7 1.2 5 3.2 7.4 4.9 12.8 9.3 23.8 20.3 34.1 32.4 7.7 9 12.6 19.5 18.8 29.3 4.2 6.6 6.8 14.4 9.7 21.8 3.4 9 6.4 18.1 9.4 27.3 1.4 4.2 2.2 8.7 3.3 13h-40c-1.7-1.3-2.2-3.1-2.5-5.2-3.8-21.7-11.3-41.9-25.7-59.1-3.1-3.7-4.9-8.3-8.6-11.6-10.5-9.2-21.9-17.2-33.7-24.6-19.1-11.9-39.7-20.8-59.6-31.1-17-8.8-33.4-18.5-50.8-26.7-5.8-2.7-11-6.9-16.9-9.6-3.4-1.4-5.4-4-7.2-7V30z" fill="#003bad"/><path d="M0 105c8.8 5 17.5 10.1 26.4 14.9 9.4 5 19.1 9.4 28.4 14.7 11.8 6.8 24 12.9 36.2 18.9 11 5.5 22.3 10.5 32.9 16.6 10.7 6.2 21.5 12.5 31.2 20.4 5.4 4.4 11.7 7.6 16 13.3 7.3 9.6 14.9 18.9 20.6 29.8 5.9 11.2 9.2 23 12.5 35 1.1 3.8.5 7.6.6 11.4h-36c-3.1-2-4.1-4.9-4.9-8.4-2.6-12.1-9-22.4-16-32.4-12.7-18-29.8-30.9-48.3-42.5-18-11.3-36.5-21.9-56-30.3-13-5.6-25.7-12.4-39.9-15-1.9-.4-2.5-2.2-3.7-3.4v-43z" fill="#00339b"/><path class="st4" d="M254 0c-9.4 18.4-21.6 33.8-40.5 43.7-10.9 5.7-22.1 10.5-34.1 11.6-13.3 1.3-26.8 1.6-40.2-.6-12.7-2.1-23.3-8.2-33.9-14.8-1.3-.8-2.6-1.6-3.6-2.7-8.9-9.6-19.4-17.7-26.9-28.7C73 5.8 71.7 3.1 71 0h59c5.2 2.9 10.9 1.8 16.4 1.9 7.6.2 15.2.6 22.6-1.9h85z"/><path d="M0 148c12.6 1.4 23.5 7.6 35.1 11.9 14.9 5.5 28.8 13 42.5 20.6 15 8.3 29.7 17.3 43.5 27.7 9.3 7 17.3 15.1 24.9 23.5 5.5 6.1 9.6 13.8 13.8 21.2 4.9 8.6 6.7 17.9 9.2 27.2h-42c-2.9-2.5-3.7-6.3-5.4-9.5-9-17.7-22.4-31.5-37.6-44-12.6-10.3-26.6-18.2-40.6-26-8.3-4.6-17.2-7.9-26.3-10.6-4.1-1.2-7.9-3.6-12.4-3.8-2.5-.2-3-2.9-4.7-4.2v-34z" fill="#002889"/><path d="M0 182c17 4.3 33.8 9.7 49.1 18.5 12 6.9 24 13.8 34.9 22.5 9 7.2 17.1 15.3 24.8 23.6 7.3 7.9 13 17.1 17.5 27 .9 2 .6 4.2.7 6.4H72c-4.3-5.4-8.1-11.2-12.9-16.3-7.4-7.8-15-15.5-24.3-21-8.7-5.1-17.6-10.1-27.4-12.7-2.9-.8-5.9-.8-7.4-4v-44z" fill="#001b76"/><path d="M0 226c16.3 2 29.8 10.6 43.2 19.1 5.1 3.3 9.9 7.7 13.7 11.9 5.4 5.9 12.3 11.2 14.7 19.5.3 1.1.2 2.3.3 3.5h-72c.1-18 .1-36 .1-54z" fill="#000d61"/><path class="st4" d="M292 164c-9-8.8-10.2-20-8.4-31.5.6-3.9 4.1-6.7 8.4-7.5v39z"/><path d="M169 0c-1.4 2.3-4 2.2-6.2 2.8-9.1 2.3-18.4 1.3-27.6.7-2.1-.1-4-1.5-5.2-3.5h39z" fill="#1859eb"/></svg>