<svg xmlns="http://www.w3.org/2000/svg" width="997.9" height="478.9"><style>.st0{fill:#340079}.st1{fill:#5000a9}.st2{fill:#3e008a}.st3{fill:#480099}.st4{fill:#5a00b7}.st5{fill:#270067}.st6{fill:#190055}.st8{fill:#6100c5}</style><path class="st0" d="M368 0h67c2.3 2 5.2 2.8 7.8 4 16.1 7.3 30.5 17 42.3 30.2 6 6.8 9.3 15.3 12.4 23.7 5.5 14.9 3.9 30.5 2.4 45.4-1.1 11.6-2.6 23.8-7.8 34.8-1.5 3.3-1.3 6.8-2.4 10.2-3 9.3-6.8 18.4-10.4 27.5-4.7 11.6-8.8 23.3-11.2 35.6-2.4 12.2 10 23.8 22.2 21.2 11.9-2.5 22.3-8.2 32.6-14.4 6.1-3.7 12.3-7.3 18.6-10.5 9.7-5 18.3-11.5 27.5-17 12.9-7.6 23.9-17.5 34.7-27.4 10.5-9.6 20.7-19.6 29.5-31 5.3-6.9 10.7-13.5 15.3-20.9 4-6.5 7-13.5 10.1-20.5 6.6-15 4.6-30.6 4.7-46.2 0-4.2-2.3-7.6-3.1-11.5-1.9-8.6-2.7-17.4-6.2-25.6-1.2-2.8-.8-5.6 1.9-7.6h39c1.7 1.3 2.6 3 2.5 5.2-1.3 18.2 3.4 36.1 1.9 54.2-1.1 14.3-2.5 28.7-7.6 42.4-6.6 17.5-16.3 33.3-27.1 48.6-7.4 10.4-15.3 20.4-22.8 30.7-5.5 7.5-10.4 15.4-15.5 23.2-8.1 12.2-15.7 24.7-20.8 38.5-2.3 6.1-3.3 12.4-4.2 18.9-1.2 9 .2 17.4 2.2 26 2 8.6 7.8 15.4 12.4 22.6 6.8 10.5 16 19.1 25 27.8 5.4 5.3 13 6.2 20 8.4 10 3.2 20.1 1.6 29.5-.5 11.1-2.5 22.5-4 33.2-8.7 9.9-4.3 19.9-8.3 29.8-12.7 15.2-6.8 29.6-15.1 44.8-21.9 8.8-3.9 17.9-7 27.3-9.2 14.5-3.5 29.2-1.8 43.8-1.6 9.4.2 18.7 3.5 27.3 7.4 8.2 3.7 17.2 5.8 24.5 11 7.5 5.4 16.2 8.5 24.1 13.1 12.1 7 24.4 13.6 36 21.4 3.7 2.5 8.3 3.6 11.6 6.7 1.9 1.8 3.8 3.4 5.3 5.6v48c-1.2 1.4-2.4 2.3-4.2.7-3.7-3.4-8.1-5.8-11.7-9.4-9.6-9.6-21.4-16.3-32.5-23.8-13.3-9-27.6-15.9-41.9-23.2-8.1-4.1-16.9-6.2-25.1-9.6-7.9-3.3-16.3-3.1-24.4-4.4-6.2-1-12.8 1.1-19.1 2.3-9.2 1.8-17.8 5.6-26 9.9-8.8 4.6-17.7 9.1-26 14.8-12.1 8.4-24.4 16.6-36.3 25.4-13.5 10-27.1 20.1-35.8 34.9-4.3 7.3-6.7 15.4-8.8 23.7-2.4 9 1.1 17.5.3 26.2-.2 2.6-.2 5-2.5 6.6h-45c-5.6-4.3-7.6-10.9-10.5-16.8-6.6-13.4-13.2-26.9-20.1-40.1-8.7-16.8-21.7-28.3-40.8-33-13.3-3.2-26.8-6.6-38.8-14-2.4-1.5-4.9-3-6.9-4.9-6.5-6.3-14.4-10.6-20.9-16.9-8.4-8.1-17.7-14.9-27.9-20.7-10.4-5.9-20.5-12.4-30.7-18.5-7-4.2-13.7-8.7-20.6-13-11.2-7-21.3-15.4-30.5-24.7-11.5-11.7-21.1-24.9-26.1-40.8-4.1-13.2-3.6-26.3.9-39.6 2.9-8.6 6.8-16.7 11.3-24.4 4.8-8.3 10.3-16.3 16.1-24 7.5-10 14.9-19.9 19.9-31.5 3.2-7.4 5.7-15.2 6.5-22.9 1.2-10.5-3.7-20.2-10.5-28.3-9.5-11.4-20.8-20.9-33.2-29.1-6.1-4.1-10.5-10.2-15.9-15.2-5-4.7-9.5-9.7-12.8-15.8-1.2-2.4-1.5-3.6.4-5z"/><path class="st1" d="M236 0h51c2.3 1.6 2.5 4.2 3.4 6.5 8.1 20.4 15.1 41.2 22.3 61.9 2.9 8.5 5.2 17.5 4.9 26.9-.2 8.7-.2 17.3 0 26 .3 12.3-2.6 23.9-5.8 35.7-3.5 13-9.7 25.2-10.6 38.9-.2 3.8-2.5 7.4-2.8 11.5-.9 14.6 4.1 27.4 11.7 39.5 11.4 18.1 27.2 32.2 42.1 47.2 12.9 13 26 25.8 38.8 38.9 10.9 11.1 19.3 24 26.2 38 .8 1.7 1.2 3.4 1.2 5.3 0 2-.3 4.2.5 5.9 4.4 8.7.2 16.8-2.6 24.3-6 16-17.2 27.9-31.9 37-14.6 9.1-30.5 13.3-47.4 12.7-11.7-.4-23.2-3.2-34.4-7.3-15.7-5.7-30.6-13-45.4-20.5-14-7.1-27.3-15.2-40.5-23.6-13.8-8.9-26-19.9-36.2-32.6-8.9-10.9-15.7-23.4-21.1-36.6-3.6-8.7-5.2-17.8-7.5-26.8-2.7-10.7-3.1-21.6-5.1-32.3-3-15.6-3.3-31.6-6.9-47.1-2.7-11.6-6.7-23-10.5-34.3-6.3-18.5-15-35.9-25.9-52.1-8.3-12.4-18.9-23.1-30.7-32.5-13.9-11.3-30.1-18.8-46.1-26.4-6.1-2.9-12.5-5.4-18.6-8.4C5 74.3 2.3 72.5 0 70V31c1.4-2.1 3.3-1.6 5.3-1.1 6.9 1.5 12.9 5.3 19.5 7.5 11.1 3.6 22.2 7 33.2 11 12.3 4.4 25.4 7.9 35.4 16.6 9.9 8.5 19.6 17.5 26.8 28.8 8.4 13 16.6 26.1 24.3 39.5 6.4 11.3 13 22.4 19.7 33.5 4.5 7.5 9.9 14.6 14.8 21.8 6 8.7 13.7 15.4 20.7 22.9 2.3 2.5 5 4.4 7.9 6 8.2 4.5 13.4 3.6 19.1-3.8 4.8-6.2 9.3-12.5 13.6-19 7.2-10.8 13.9-22 19.5-33.7 4-8.4 6.9-17.2 9.1-26.3 2.4-9.6 3.8-19.1 3.7-29-.1-8.5-3-16.3-4.5-24.4-4.3-23.2-15.2-43.9-25.9-64.5-2.1-4.1-5.2-7.7-7-12.1-.8-1.9-1.1-3.4.8-4.7z"/><path class="st2" d="M368 0c8.2 14.2 19.2 25.7 32.7 34.8 3.3 2.2 6.2 5.1 9.2 7.6 9.8 8.2 20.2 15.8 26.3 27.4 3.8 7.3 8 15.1 6.5 23.7-1.4 7.6-3.3 15.2-6.3 22.5-5.9 14.5-16.1 26.2-24.8 38.9-9.7 14.1-18.9 28.5-24 45.1-3.8 12.5-3.2 24.7 1.3 37.1 6.3 17.5 17.2 31.5 30.6 43.6 12.4 11.3 26.4 20.6 41 28.9 10.4 5.9 20.2 12.8 30.6 18.6 8.3 4.6 16.1 9.8 23.5 15.8 1.3 1 2.8 1.9 3.9 3.1 8.8 9.3 19.3 16.7 29.7 24.1 7.4 5.2 16 8.6 25 10.9 8.5 2.1 16.9 4.6 25.2 7.5 10.1 3.5 17.3 10.7 24.1 18.1 5.7 6.2 9.1 14.2 12.8 21.8 7.2 14.6 14.4 29.2 21.7 43.8.9 1.8 1.7 3.6 1.8 5.6h-262c-2.1-1.7-2-3.4.2-4.7 2.4-1.5 4.5-3.4 6.9-5 21-13.6 38.4-30.8 51.1-52.3 7.4-12.5 8.4-26.3 3.2-40.4-3.2-8.6-7.8-16.1-13.8-22.9-3.7-4.2-6.4-9.3-10.3-13.4-6.3-6.5-13.7-11.6-20.3-17.6-14.5-13.1-29.7-25.6-42.6-40.4-9.8-11.3-19.1-23-26-36.4-3.8-7.5-6.3-15.7-8.4-23.9-.9-3.3.8-6.6.5-9.9-1.4-16.9 4.2-32.1 10.3-47.5 5.4-13.7 10.8-27.6 14.9-41.8 5.3-18.5 1.5-36-7.2-52.9-7.5-14.6-16.3-28.6-23.2-43.6-3.2-6.9-5.8-14.1-8.3-21.4-.7-1.9-.8-3.5 1-4.8H368z"/><path class="st3" d="M325 0c5 14.9 10.9 29.4 18.9 42.9 6.5 10.9 12.4 22.1 17.5 33.6 5.6 12.5 7.9 25.3 5.2 39.3-3.6 18.3-11.3 35-17.4 52.4-3 8.5-5.9 16.8-7.8 25.7-1.8 8.5-1.1 16.8-1.6 25.2-.2 4.6 1.4 9.5 3.2 13.9 5.7 14.7 14.4 27.4 24.3 39.7 7.5 9.4 15.6 18.3 24.5 26.2 11.2 9.8 21.8 20.2 33.6 29.5 7.2 5.7 14.2 12.1 19 20.4 2.3 4.1 6 7.1 8.6 11 7.7 11 11.6 23.1 11.1 36.5-.4 11.4-5.2 21.1-11.4 30.3-3 4.4-6.2 8.6-10 12.4-13.3 13.3-26 27.3-42.5 36.7-1.3.8-2.4 1.8-3 3.2h-91c-.6-.8-1.6-1.4-2.4-1.5-12.9-1.2-23.1-9.1-34.3-14.3-14.2-6.6-28-13.9-42-20.9-13.4-6.7-26.7-13.4-39.3-21.6-6.4-4.2-12.4-9-19.2-12.5-1.8-.9-3.2-2.4-4.6-3.8-6.8-6.7-13.7-13.2-20.1-20.2-9.7-10.4-17.2-22.5-22.4-35.7-3.8-9.6-7.5-19.2-9.2-29.4-1.3-8.1-3.2-16.2-4.6-24.3-1.9-10.5.1-21.3-3.2-31.6-.9-2.8-.2-6-.3-9 0-3.7-.3-7.3-2-10.7-.7-1.4-.9-2.8-1-4.4-1.5-21.8-6.8-42.7-17.7-61.7-6.2-10.6-12.7-21.3-22.3-29.3-10-8.4-20.5-16.4-31.9-22.9-8.7-4.9-17-10.5-26.2-14.4-1.7-.6-2.1-2.7-3.5-3.7V70c1.6.4 3.4.5 4.8 1.2 17.6 8.7 36.1 15.6 53 25.5 16.5 9.7 30.1 22.7 42.4 37.3 8.4 10 14.2 21.4 20.2 32.5 6 11.1 10.7 23.2 14.5 35.5 2.4 7.9 4.4 16 7.2 23.8 1.5 4 1.3 8.5 2.2 12.7 1.1 5.5 2.5 11.2 2.3 16.7-.3 10.3 3.3 19.8 3.9 30 .8 13.3 4.4 26.5 8.2 39.3 4.2 13.9 11 26.6 18.9 38.8 6.7 10.2 15.2 18.5 24 26.5 7.1 6.4 15 12.1 23.3 17 15 8.8 30.1 17.6 45.8 25.3 15.2 7.6 30.9 14.1 47.2 18.6 17.1 4.7 34.2 3.8 51.3-2.7 10.6-4 19.8-9.9 27.6-17.3 9.7-9 16.7-20.2 19.3-34 3.5-19-4.7-33.5-15.5-47.5-22-28.6-50.2-51.4-74.6-77.7-12.9-13.9-24.6-28.7-29.2-47.4-2.1-8.6-2.2-17.8.7-26.6 2-6.1 2.1-12.7 4.2-18.9 3.3-9.7 6.4-19.5 9.2-29.4 2.6-9.1 4.3-18.4 4-28-.2-5.8-.2-11.7 0-17.5.7-17.7-4.7-34-10.8-50.3-4.6-12.5-9-25-13.2-37.6-1.7-5.1-5-9.9-4-15.8H325z"/><path class="st1" d="M781.9 0h104c1 1 2.1 1.4 3.5 1.4 17.6.7 33.1 7.2 47.8 16.4 7.5 4.7 15 9.5 20.7 16.2 12.8 15.2 23.3 31.8 30.3 50.5 2.5 6.7 5.2 13.2 7.4 20 1.1 3.4-.2 7.3 2.3 10.4v79c-6.2 12.8-17.5 19.5-30 24.7-2.5 1-5.2 1.4-7.8 1.7-10.5 1.2-20.6 5.2-31.4 4.2-3.8-.4-7.7.2-11.5-.1-19-1.3-37.8 1.9-56.8 2.6-8.4.3-17.1.9-25.5 3.8-5.5 1.9-11.8 1.2-17.7 2.5-8.1 1.8-16.2 3.6-24.4 4.6-18.6 2.2-37.3 5.5-55.8-.9-9.8-3.4-17-9.8-20.6-19.5-4.7-12.5-3.9-25.2-.9-38.1 2.9-12.3 6.2-24.5 9.9-36.6 4.7-15.3 7.8-30.9 11.2-46.5 3.2-14.7 5.6-29.6 8-44.5.9-5.8 3-11.7 5.5-17 3.4-7.3 6.3-15.1 11.9-21.3 5-5.5 10-11 17.9-12.2.6-.1 1.5-.6 2-1.3z"/><path class="st4" d="M236 0c3.7 8.8 9.7 16.3 13.6 25 5.5 12.4 12.2 24.2 16.4 37.4 3.4 10.8 6.4 21.8 8.1 32.7 1.8 11.4 2.5 23.3-1.3 35-2.6 8-4.1 16.3-7.2 24.3-3.2 8.5-7.4 16.3-11.9 24.1-4.9 8.5-9.9 17-15.7 24.8-4.9 6.6-8.9 14.1-16.4 18.5-3.5 2-6.7 2.4-10.4.6-5-2.4-9.5-5.2-13.6-9.2-8.8-8.6-17.6-17.2-24.6-27.3-7.1-10.2-13.3-21-19.8-31.7-10.9-18-21.1-36.5-32.4-54.3-6.4-10.1-14.2-18.8-22.5-27.2-9.1-9.1-20.3-14.1-32-18.5-18.2-6.9-37.3-11-54.9-19.4C7.8 33.1 3.8 32.2 0 31V0h236z"/><path class="st2" d="M997.9 357c-6.5-1.8-11.6-6.4-17.4-9.5-9.2-4.9-18.2-10.3-26.9-16-10.5-6.8-21.9-11.9-32.8-17.8-20.7-11.3-42.3-19.9-67-20.1-25.1-.1-47.3 7.4-69 18.5-18.4 9.3-37.1 17.9-56 26.1-11.3 4.9-23.2 7.2-34.8 10.1-16.6 4.1-33.6 3.6-49.6-4-1.7-.8-3.3-1.6-4.6-2.9-13.9-13.6-26.9-27.9-36.4-45.1-2.4-4.3-3.6-9-4.2-13.8-.5-4.1-.2-8.3-2.4-12.1-.4-.7-.5-1.7-.3-2.4 3.6-17 7.7-33.7 17.3-48.8 8-12.6 16.1-25.2 24.3-37.7 4.4-6.7 9.5-13.2 14.7-19.3 7.2-8.4 12.4-18 18.9-26.9 8.9-12.3 14.7-26.4 19.2-40.8 2.3-7.5 4-15.2 4.5-23.3.5-8.6 2.6-17.2 1.5-25.8-2-15.1-1.9-30.2-1.8-45.3h35c1.8 1.3 2 2.8 1.6 5-2.4 13.5-5.7 26.8-6.6 40.7-.8 12.5-.6 25.3-3.8 37.5-1.9 7.2-3.1 14.6-4.9 21.8-5.6 21.7-17.2 40.6-26.6 60.6-6.9 14.7-15.9 28.6-19.9 44.6-1.4 5.6-2.3 11.4-3.5 17-1.3 6.2 2.1 12.3 4.1 18.2 7.6 22.3 33 36.2 53.2 36.2 17.7 0 34.1-4.2 50.6-9.4 11.1-3.5 22.4-6.2 33.4-9.9 12.1-4.1 24.7-5 37.2-6.4 10.8-1.2 21.9-1.7 32.8.9 4.7 1.1 9.5.9 14.3 2 11.6 2.8 22.3 7.6 33 12.7 13.9 6.5 27.2 14.1 41.2 20.3 8.4 3.7 16.7 7.5 24.9 11.5 2.8 1.4 5.3 3 6.9 5.7-.1 15.9-.1 31.9-.1 47.9z"/><path class="st5" d="M655.9 0c-.7 5.6 2.5 10.2 3.6 15.4 1.7 8.1 2.4 16.5 5.9 24.1.2.4.3 1 .3 1.5-.9 8.7 1 17.3.7 26.2-.5 14.3-5.3 27-11.7 39.2-4.4 8.3-10 16-15.9 23.4-8.3 10.5-17.6 19.9-26.9 29.3-5.5 5.6-11 11.1-17.5 15.5-5.6 3.8-9.7 9.4-15.6 13.2-17.2 11-34.3 22-52.4 31.6-7.7 4.1-15.2 8.9-23.3 12.3-8 3.4-16.2 5.9-25.1 2.4-6-2.4-9.3-6.2-11.5-12.5-4.5-13 2.3-23.8 5.8-35.2 4-13.3 11-25.7 14.5-39.2 3-12 6.3-24 8.8-36.1 2.7-13 1.3-25.8 2.2-38.6.4-5.5-2-10.6-3.8-15.3-4.8-13-11.7-24.6-23.8-33-9.6-6.6-19.1-13.1-29.7-18-2.7-1.2-4.7-3.2-5.7-6h113c6.5 2.8 8.3 8.5 10.1 14.8 1.5 5.7 2.7 11.2 2.5 17.1-.1 3.2-.2 6.3-1.7 9.2-1.2 2.4-1.3 5.2-1.3 7.8 0 14.3-.1 28.7 0 43 0 6.9 2.5 13.1 7 18.2 6.2 7 12.3 6.5 21.9 1.9 14.8-7.1 24.5-19.1 29.5-34.7 3.4-10.5 1.4-20.8-2.5-30.7-3.2-8.1-8.8-14.7-14.1-21.6-5.2-6.8-12.6-12-16-20.2-.8-1.9-1.2-3.4.7-4.8 24-.2 48-.2 72-.2z"/><path class="st0" d="M246 478.9h-91c-.9-.9-2-1.4-3.2-1.4-6.3.4-12.4-1.6-18.7-1.2-3.2.2-6.2-.5-9.2-1.6-6.6-2.3-13.7-2.5-20.2-.6-6.6 1.9-13.2 1.9-19.8 3.2-1.4.3-2.8.3-3.9 1.4H0v-101c1.5-4.7 6.8-5.6 9.3-9 5.7-7.6 11.1-15.3 12.9-25 2.3-12.5 5-25 6.8-37.6.9-6.8.3-13.6.4-20.5.3-12.8.9-25.8-2.4-38.2-3.6-13.4-6.2-27.2-14.9-38.9-4.4-5.7-8.4-12-12.1-18.5v-46c1.9-2.5 4.1-1.7 6.2-.5 6.6 3.9 12.9 8.3 18.6 13.4 15.1 13.3 28.5 28.1 36.3 47 4.9 11.8 8.7 24 9.4 37 .1 1.8-.2 3.8.6 5.4 3.2 6.8 1.6 14.1 2.5 21.1 1.6 13.1 1.3 26.2 2.3 39.3.5 6.7.3 13.8 2 20.2 2.8 11.1 2.7 22.7 7.3 33.4 3.2 7.5 4.3 15.7 8.2 23 7.8 14.7 19.4 25.6 33 34.7 6.1 4.1 12.7 7.1 18.7 11.3 4 2.7 8.3 4.9 13 6.3 7.4 2.1 13.7 6.8 20.8 9.7 11.5 4.8 23.1 9.5 34.5 14.4 10.2 4.4 20.4 8.8 30.5 13.6 2.3 1 5.6 2.2 2.1 5.6z"/><path class="st3" d="M997.9 309c-1.3-.4-2.6-.7-3.8-1.3-18.8-9.6-38.6-17.2-57.1-27.3-12.9-7-26.1-13.7-40.2-17.4-18.1-4.8-36.8-7.6-55.7-3.5-5.3 1.2-10.8.6-16.3 1.7-11.6 2.4-22.7 5.9-34 9.4-14.9 4.6-29.8 10.1-45.1 12.3-19.6 2.8-39.8 3.3-57-9.6-11.1-8.4-19.1-18.9-23-32.8-5.3-18.7 1.7-35 9-50.9 9.6-21.2 21-41.6 30.8-62.7 5.3-11.4 8.1-23.6 10.8-36 4.3-20 5-40.3 6.9-60.5 1-10.3 4.4-20.4 6.6-30.6h52c-3.3 2.7-6.4 5.9-9.9 8.2-11.4 7.4-15.7 19.4-20.3 31.1-5.4 13.9-6.3 28.7-9.3 43.1-2.1 10.1-3.1 20.6-6.7 30.5-2.2 6.2-2.7 13-4.5 19.4-2.9 10.7-6.8 21.2-9.2 32-2.5 11.6-7 22.7-6.4 35.1.4 8.8 2.4 16.6 7.1 23.9 3.1 4.9 7.8 8.2 12.7 10 13.8 4.8 28.1 6.6 42.7 3.1 5.2-1.2 10.6-1.1 15.8-1.7 12.3-1.4 24.2-5.2 36.7-6.3 7.6-.7 15.4-2 23-3.6 1.6-.3 3.3-.8 4.9-.8 25.1-.5 50.1-2.1 75.3-2.5 16.2-.3 32.7-3.3 47.1-12.3 4.3-2.7 7.6-6.4 10.8-10.3 1.7-2 3.5-4.1 6.1-5 .2 38.6.2 76.9.2 115.3z"/><path class="st2" d="M246 478.9c-2.4-4.5-7.2-5.5-11.2-6.9-8.6-2.9-16.2-7.7-24.7-10.8-12-4.3-23.9-9.3-35.3-15-8.9-4.5-18.6-7.3-27.2-12.4-15.4-9.1-31.2-17.5-43.6-31.1-8.4-9.3-15.1-19.4-18.4-31.5-2.1-7.7-6-14.9-6.6-22.9-.8-9.4-3-18.6-4.5-27.8-2.4-14.7.5-29.7-3.3-44.1-.5-1.7-.4-3.7-.3-5.5.8-14.9-2.6-29.4-5.5-43.8-5.6-27.8-20.9-50.1-42.3-68.1C16.2 153.2 9 147 0 144v-37c9 2.4 16.7 7.4 24.6 11.9 7.5 4.3 14.7 9 21.8 13.9 13.6 9.1 24.9 20.1 33.9 33.8 8.2 12.4 14.6 25.4 18.4 39.6 2.7 9.9 3.9 20.1 5.7 30.2 1.7 9.8 1.9 19.7 3.8 29.5.4 2.1.9 4.3.7 6.4-1.3 9.9 1.5 19.5 2.8 29 1.9 14 6.2 27.8 10.8 41.3 4.5 13 11.1 24.9 19.6 35.1 10.4 12.5 22.2 24.1 36.2 33.3 20.7 13.7 42.7 25 64.9 35.9 16.9 8.2 33.6 16.8 50.4 25.2 1.8.9 3.7 1.4 5.6 2.1 2.7.9 5.4 1.8 6.7 4.7H246z"/><path class="st5" d="M703.9 478.9c-.1-6.8.2-13.5-1.6-20.3-1.7-6.6.8-13.4 2.5-19.6 4.2-15.2 12.9-27.9 25.1-38.1 9.5-8 19.3-15.5 29.5-22.7 10.6-7.5 21-15.1 31.9-22 11.3-7.2 23.3-13.5 35.8-18.2 9.9-3.7 20.6-6.3 31.1-5.5 9.4.7 18.9 2.1 28.2 5.3 21.3 7.4 41.1 17.8 60.3 29.6 10.3 6.3 20.4 13.1 30 20.4 5.8 4.4 10.4 10.2 16.7 14.2 1.5 1 2.8 2.4 4.6 3v64c-1.7 2.1-3.1 1.8-4.8-.1-11-12.9-22-25.8-34.1-37.7-17.6-17.2-37-32-59.9-41.6-18.1-7.6-37-9.9-56.1-4.4-13.3 3.9-25.3 10.7-37.4 17.5-11.4 6.5-20.4 15.9-31.5 22.6-1.4.9-2.7 2-3.7 3.3-9.7 12.9-18.9 26.1-21.1 42.7-.4 3.1-2.2 5.5-4.4 7.6h-41.1z"/><path class="st6" d="M744.9 478.9c2.4-15.6 7.6-29.7 16.7-43 7.6-11.1 18.4-17.4 28-25.5 11.7-9.9 25.5-16.7 39.3-23.1 16.6-7.8 34-9.1 52-5.8 20.3 3.7 37.4 13.9 53.8 25.7 14.5 10.5 27.6 22.5 39.2 35.9 6.9 8 14.9 15.1 21.2 23.8.7.9 1.8 1.5 2.7 2.2v10h-92c-4.6-3.7-6.1-9.5-8.7-14.4-5.6-10.7-14.8-16.4-25.7-20-12-3.9-23.7-2.6-35.6 1.8-14.8 5.5-25.6 15-33.5 28.2-1.1 1.9-3.2 2.6-4.5 4.3-17.6-.1-35.2-.1-52.9-.1zM583.9 0c2.4 5.8 6.3 10.4 10.4 15.1 8.5 9.7 18 19.1 22.2 31.6 5 14.7 5.8 29.4-3.2 43.6-6.4 10.1-14.6 17.9-24.5 24.2-12.2 7.7-25.7 3.3-31.5-10.2-1.8-4.3-2.5-8.5-2.4-13.1.1-14.3 0-28.6 0-43 0-3.5.5-6.8 1.8-10.2 2-5.2 1.9-10.9.3-16.2-2.3-7.5-3.7-15.5-9.2-21.8h36.1z"/><path class="st5" d="M0 190c2.1.7 3.9 2 5.2 3.8 7.9 11.2 15.4 22.5 20 35.9 8.6 25 7.4 50.6 6.4 76-.6 16.1-3.7 32.4-9.3 47.6C18.4 363.9 12.2 374.1 0 378V190z"/><path class="st3" d="M997.9 115c-4.3-4.9-5.3-11.3-7.5-17.1-6-16-12.4-31.8-22.5-45.8-3.3-4.5-6.7-9-9.8-13.7-4.4-6.7-11.5-10.5-17.6-15.2C927.6 13 911.8 9 896.7 3.6c-3.6-1.3-8.3 1-10.8-3.6h112v115z"/><path d="M797.9 478.9c3.3-11.7 11.8-19.5 20.9-26.5 12.7-9.9 27.4-13.8 43.4-12.4 16 1.4 28.4 8.9 37.1 22.6 3.2 5.1 6 10.3 6.6 16.3h-108z" fill="#05003e"/><path class="st5" d="M80 478.9c2.1-3.9 6.6-4.4 9.9-4.9 9.1-1.3 18-4.4 27.3-3.1 3.3.4 6.6.2 9.6 1.9 1.6.9 3.6 1.4 5.3 1 6.7-1.5 12.6 2.5 19 2.4 1.8 0 3 1.2 3.9 2.7H80z"/><path class="st4" d="M331.3 415.9c-22.1.5-38.2-6.5-54.1-14.2-9.9-4.8-19.9-9.6-28.3-16.7-16-13.5-31.8-27.4-38-48.7-2.9-9.9-6.3-19.7-5.7-30.1.7-12.6 3.5-24.9 8.4-36.6.9-2.1 2.1-4.2 3.6-6 6.7-8.2 13.5-9.4 25.1-4.2 11.9 5.3 23.2 11.7 34.1 18.7 9.2 5.9 18.6 11.6 27.4 18.2 7.6 5.6 15.1 11.2 21.9 18 5.2 5.2 12.1 8.9 16.7 14.7 10.6 13.3 22.8 25.4 27.7 42.6 3.8 13.4-3 33.1-15.7 38.3-14.2 5.6-14 6-23.1 6zM761.9 140c-1.4-9.3.1-20.8 2.3-31.9 3.5-17.8 5.4-36.2 14.6-52.5 8.1-14.4 20-23 36.4-25.9 4.3-.8 8.4-2.5 13-2.9 9.9-.7 18.9 3 28.5 4.1 12.8 1.5 24.6 6.6 36.1 12.5 3.9 2 7.7 4.3 10.8 7.1 8.6 8 18.1 15.4 23.2 26.5 4.6 10 8.3 20 8.4 31.4.1 12.7-1.3 24.9-7.7 36-8.3 14.3-20.1 24.8-35 32.3-13.7 6.9-28.3 10.1-43 13.7-15.5 3.8-31.1 5.1-46.8 4.3-15.3-.7-28.7-6-36.7-20.3-2.5-4.5-3.9-9.5-3.9-14.8-.2-5.7-.2-11.5-.2-19.6z"/><path class="st8" d="M181 84.7c.2-2.6-.8-6.7 2-10.2 5.3-6.6 13.4-7.6 20.3-2.3 11.8 9 16.4 24.9 11.1 38.9-2.5 6.7-10 9.4-17.6 5.4-9.9-5.2-14.4-14.3-15.8-25-.2-1.8 0-3.7 0-6.8zM832.9 141.9c-20.6 2.9-30.4-20.1-27.6-35.5 1.6-8.8 4.4-16.8 11.6-23.1 11.1-9.9 28.3-10.6 39.8-1 7.9 6.7 13.9 14.5 14.4 25.2.2 4.8-.5 9.7-3.1 13.9-8.1 13.3-19.1 21.7-35.1 20.5z"/></svg>